<svg width="34" height="34" viewBox="0 0 34 34" fill="none" xmlns="http://www.w3.org/2000/svg">
<path d="M0 17C0 7.61116 7.61116 0 17 0C26.3888 0 34 7.61116 34 17C34 26.3888 26.3888 34 17 34C7.61116 34 0 26.3888 0 17Z" fill="#FFF41A"/>
<path d="M9.00447 22V11.976H10.2645L11.9795 15.798L12.5745 17.345H12.6165L13.2115 15.798L14.9265 11.976H16.1865V22H14.9545V16.715L15.0945 14.111H15.0525L13.0505 18.787H12.1405L10.1385 14.111H10.0965L10.2365 16.715V22H9.00447ZM21.697 22.224C21.081 22.224 20.5163 22.1167 20.003 21.902C19.4943 21.6873 19.0557 21.377 18.687 20.971C18.3183 20.565 18.036 20.0773 17.84 19.508L19.051 19.067C19.2703 19.7017 19.6017 20.1823 20.045 20.509C20.493 20.8357 21.0367 20.999 21.676 20.999C22.2873 20.999 22.7633 20.8637 23.104 20.593C23.4493 20.3223 23.622 19.949 23.622 19.473V19.354C23.622 18.9573 23.489 18.626 23.223 18.36C22.957 18.094 22.5183 17.8537 21.907 17.639L20.528 17.156C19.114 16.6613 18.407 15.7887 18.407 14.538V14.489C18.407 13.943 18.5377 13.4647 18.799 13.054C19.065 12.6433 19.4337 12.3237 19.905 12.095C20.381 11.8663 20.9293 11.752 21.55 11.752C22.3853 11.752 23.0853 11.9387 23.65 12.312C24.2193 12.6853 24.6347 13.236 24.896 13.964L23.692 14.419C23.3513 13.4577 22.6397 12.977 21.557 12.977C21.0017 12.977 20.5537 13.1077 20.213 13.369C19.877 13.6303 19.709 13.9803 19.709 14.419V14.503C19.709 14.8437 19.8187 15.133 20.038 15.371C20.2573 15.6043 20.6073 15.805 21.088 15.973L22.467 16.456C23.3163 16.7547 23.937 17.1397 24.329 17.611C24.7257 18.0823 24.924 18.6727 24.924 19.382V19.438C24.924 19.998 24.7887 20.488 24.518 20.908C24.2473 21.3233 23.8693 21.6477 23.384 21.881C22.9033 22.1097 22.341 22.224 21.697 22.224Z" fill="#0D0D0C"/>
</svg>
